<svg xmlns="http://www.w3.org/2000/svg" xmlns:xlink="http://www.w3.org/1999/xlink" width="89.676" height="20.299" viewBox="0 0 89.676 20.299">
  <defs>
    <clipPath id="clip-path">
      <rect id="Rectangle_19" data-name="Rectangle 19" width="89.676" height="20.299" transform="translate(0 0)" fill="none"/>
    </clipPath>
  </defs>
  <g id="Group_71" data-name="Group 71" transform="translate(0 0)">
    <g id="Group_70" data-name="Group 70" clip-path="url(#clip-path)">
      <path id="Path_43" data-name="Path 43" d="M56.346.1a10.1,10.1,0,1,1-10.1,10.1A10.1,10.1,0,0,1,56.346.1" fill="#fff"/>
      <path id="Path_44" data-name="Path 44" d="M33.116.1a10.1,10.1,0,1,1-10.1,10.1A10.1,10.1,0,0,1,33.116.1" fill="#fff"/>
      <path id="Path_45" data-name="Path 45" d="M17.239,16.9A10.1,10.1,0,1,1,7.482,0,10.1,10.1,0,0,0,19.856,12.374,10.051,10.051,0,0,1,17.239,16.9" fill="#fff"/>
      <path id="Path_46" data-name="Path 46" d="M69.476,10.2a10.1,10.1,0,1,1,18.849,5.05,10.1,10.1,0,0,0-17.5,0,10.059,10.059,0,0,1-1.349-5.05" fill="#fff"/>
    </g>
  </g>
</svg>
